# xmcd
#
# Track frame offsets: 
#        150
#        11059
#        22547
#        36270
#        50360
#        62620
#        75155
#        85970
#        97347
#        107982
#        122762
#        136010
#        146790
#        161932
#        172162
#        185117
#        196622
#        210257
#
# Disc length: 2995 seconds
#
# Revision: 11
# Processed by: cddbd v1.5.2PL0 Copyright (c) Steve Scherf et al.
# Submitted via: ExactAudioCopy v1.0b4
#
DISCID=f20bb112
DTITLE=Various Artist - Country's Greatest 3CD - CD2
DYEAR=1997
DGENRE=country
TTITLE0=Sammi Smith - Help Me Make It Through The Night
TTITLE1=Skeeter Davis - Crying Time
TTITLE2=B.J. Thomas - I'm So Lonesome
TTITLE3=Bille Jo Spears - Which Way You Goin' Billy
TTITLE4=Lynn Anderson - Stand By Your Man
TTITLE5=Faron Young - It's Four In The Morning
TTITLE6=Carl Belew - Am I That Easy To Forget
TTITLE7=Dolly Parton - Makin' Believe
TTITLE8=Freddy Fender - A Man Can Cry
TTITLE9=The Kingston Trio - Tom Dooley
TTITLE10=Donna Fargo - Daddy
TTITLE11=Patsy Cline - I Cried All The Way To The Altar
TTITLE12=Bobby Bare - Leaving On A Jet Plane
TTITLE13=Johnny Cash - Goodbye Little Darling
TTITLE14=Charlie Rich - I Take It On Home
TTITLE15=Willie Nelson - Suffering In Silence
TTITLE16=Kenny Rogers - I'm Gonna Sing You A Sad Song Suzy
TTITLE17=Glen Campbell - Crying
EXTD=
EXTT0=
EXTT1=
EXTT2=
EXTT3=
EXTT4=
EXTT5=
EXTT6=
EXTT7=
EXTT8=
EXTT9=
EXTT10=
EXTT11=
EXTT12=
EXTT13=
EXTT14=
EXTT15=
EXTT16=
EXTT17=
PLAYORDER=
